<svg id="svg" version="1.1" xmlns="http://www.w3.org/2000/svg" xmlns:xlink="http://www.w3.org/1999/xlink" width="400" height="397.2093023255814" viewBox="0, 0, 400,397.2093023255814"><g id="svgg"><path id="path0" d="M127.507 32.175 L 127.507 43.297 105.263 43.297 L 83.019 43.297 83.019 54.419 L 83.019 65.541 71.903 65.541 L 60.787 65.541 60.681 76.763 L 60.576 87.984 49.355 88.090 L 38.133 88.195 38.133 110.235 L 38.133 132.274 194.439 132.274 L 350.745 132.274 350.745 110.235 L 350.745 88.195 339.523 88.090 L 328.302 87.984 328.196 76.763 L 328.091 65.541 316.975 65.541 L 305.859 65.541 305.859 54.419 L 305.859 43.297 283.615 43.297 L 261.370 43.297 261.370 32.175 L 261.370 21.053 194.439 21.053 L 127.507 21.053 127.507 32.175 M15.889 143.793 L 15.889 154.916 27.011 154.916 L 38.133 154.916 38.133 166.038 L 38.133 177.160 27.011 177.160 L 15.889 177.160 15.889 221.847 L 15.889 266.534 27.011 266.534 L 38.133 266.534 38.133 288.772 L 38.133 311.010 49.355 311.116 L 60.576 311.221 60.682 322.238 L 60.787 333.255 71.804 333.360 L 82.820 333.466 82.926 344.485 L 83.031 355.505 105.170 355.607 L 127.309 355.710 127.414 366.931 L 127.520 378.153 194.445 378.153 L 261.370 378.153 261.370 366.832 L 261.370 355.511 283.615 355.511 L 305.859 355.511 305.859 344.389 L 305.859 333.267 316.975 333.267 L 328.091 333.267 328.196 322.244 L 328.302 311.221 339.523 311.116 L 350.745 311.010 350.745 288.772 L 350.745 266.534 361.867 266.534 L 372.989 266.534 372.989 210.725 L 372.989 154.916 361.867 154.916 L 350.745 154.916 350.745 177.358 L 350.745 199.801 317.180 199.801 L 283.615 199.801 283.615 188.481 L 283.615 177.160 272.493 177.160 L 261.370 177.160 261.370 166.038 L 261.370 154.916 250.248 154.916 L 239.126 154.916 239.126 166.038 L 239.126 177.160 228.004 177.160 L 216.882 177.160 216.882 188.481 L 216.882 199.801 172.201 199.801 L 127.520 199.801 127.414 188.580 L 127.309 177.358 116.087 177.253 L 104.866 177.148 104.866 166.032 L 104.866 154.916 71.500 154.916 L 38.133 154.916 38.133 143.793 L 38.133 132.671 27.011 132.671 L 15.889 132.671 15.889 143.793 M149.752 166.038 L 149.752 177.160 160.874 177.160 L 171.996 177.160 171.996 166.038 L 171.996 154.916 160.874 154.916 L 149.752 154.916 149.752 166.038 M284.012 166.038 L 284.012 177.160 294.935 177.160 L 305.859 177.160 305.859 166.038 L 305.859 154.916 294.935 154.916 L 284.012 154.916 284.012 166.038 M216.789 255.313 L 216.894 266.534 250.453 266.534 L 284.012 266.534 284.012 277.656 L 284.012 288.779 250.248 288.779 L 216.485 288.779 216.485 277.656 L 216.485 266.534 205.362 266.534 L 194.240 266.534 194.240 255.478 C 194.240 249.398,194.362 244.300,194.511 244.151 C 194.660 244.002,199.710 243.928,205.733 243.986 L 216.683 244.091 216.789 255.313 " stroke="none" fill="#fcfcfc" fill-rule="evenodd"></path><path id="path1" d="M0.000 198.610 L 0.000 397.219 200.000 397.219 L 400.000 397.219 400.000 198.610 L 400.000 0.000 200.000 0.000 L 0.000 0.000 0.000 198.610 M261.370 32.175 L 261.370 43.297 283.813 43.297 L 306.256 43.297 306.256 54.419 L 306.256 65.541 317.378 65.541 L 328.500 65.541 328.500 76.663 L 328.500 87.786 339.623 87.786 L 350.745 87.786 350.745 110.228 L 350.745 132.671 194.439 132.671 L 38.133 132.671 38.133 143.793 L 38.133 154.916 71.698 154.916 L 105.263 154.916 105.263 166.038 L 105.263 177.160 116.385 177.160 L 127.507 177.160 127.507 188.282 L 127.507 199.404 172.195 199.404 L 216.882 199.404 216.882 188.282 L 216.882 177.160 228.004 177.160 L 239.126 177.160 239.126 166.038 L 239.126 154.916 250.248 154.916 L 261.370 154.916 261.370 166.038 L 261.370 177.160 272.493 177.160 L 283.615 177.160 283.615 166.038 L 283.615 154.916 294.935 154.916 L 306.256 154.916 306.256 166.038 L 306.256 177.160 294.935 177.160 L 283.615 177.160 283.615 188.282 L 283.615 199.404 317.180 199.404 L 350.745 199.404 350.745 177.160 L 350.745 154.916 361.867 154.916 L 372.989 154.916 372.989 210.725 L 372.989 266.534 361.867 266.534 L 350.745 266.534 350.745 288.779 L 350.745 311.023 339.629 311.023 L 328.513 311.023 328.407 322.244 L 328.302 333.466 317.285 333.571 L 306.269 333.677 306.163 344.693 L 306.058 355.710 283.714 355.813 L 261.370 355.915 261.370 367.034 L 261.370 378.153 194.439 378.153 L 127.507 378.153 127.507 367.034 L 127.507 355.915 105.164 355.813 L 82.820 355.710 82.715 344.693 L 82.609 333.677 71.593 333.571 L 60.576 333.466 60.470 322.244 L 60.365 311.023 49.249 311.023 L 38.133 311.023 38.133 288.779 L 38.133 266.534 27.011 266.534 L 15.889 266.534 15.889 221.847 L 15.889 177.160 27.011 177.160 L 38.133 177.160 38.133 166.038 L 38.133 154.916 27.011 154.916 L 15.889 154.916 15.889 143.793 L 15.889 132.671 27.011 132.671 L 38.133 132.671 38.133 110.228 L 38.133 87.786 49.255 87.786 L 60.377 87.786 60.377 76.663 L 60.377 65.541 71.500 65.541 L 82.622 65.541 82.622 54.419 L 82.622 43.297 105.065 43.297 L 127.507 43.297 127.507 32.175 L 127.507 21.053 194.439 21.053 L 261.370 21.053 261.370 32.175 M171.996 166.038 L 171.996 177.160 160.874 177.160 L 149.752 177.160 149.752 166.038 L 149.752 154.916 160.874 154.916 L 171.996 154.916 171.996 166.038 M194.638 255.412 L 194.638 266.534 205.760 266.534 L 216.882 266.534 216.882 277.656 L 216.882 288.779 250.248 288.779 L 283.615 288.779 283.615 277.656 L 283.615 266.534 250.248 266.534 L 216.882 266.534 216.882 255.412 L 216.882 244.290 205.760 244.290 L 194.638 244.290 194.638 255.412 " stroke="none" fill="#0b0b0b" fill-rule="evenodd"></path><path id="path2" d="" stroke="none" fill="#bc10080" fill-rule="evenodd"></path><path id="path3" d="" stroke="none" fill="#bc10080" fill-rule="evenodd"></path><path id="path4" d="" stroke="none" fill="#bc10080" fill-rule="evenodd"></path></g></svg>